# AST/ASF file generated using VICON BodyLanguage
# -----------------------------------------------
:version 1.10
:name VICON
:units
  mass 1.0
  length 0.45
  angle deg
:documentation
   .ast/.asf automatically generated from VICON data using
   VICON BodyBuilder and BodyLanguage model FoxedUp or BRILLIANT.MOD
:root
   order TX TY TZ RX RY RZ
   axis XYZ
   position 0 0 0  
   orientation 0 0 0 
:bonedata
  begin
     id 1 
     name lhipjoint
     direction 0.54267 -0.795011 0.271047 
     length 2.39899 
     axis 0 0 0  XYZ
  end
  begin
     id 2 
     name lfemur
     direction 0.34202 -0.939693 0  
     length 7.49701  
     axis 0 0 20  XYZ
    dof rx ry rz
    limits (-160.0 20.0)
           (-70.0 70.0)
           (-60.0 70.0)
  end
  begin
     id 3 
     name ltibia
     direction 0.34202 -0.939693 0   
     length 8.1668   
     axis 0 0 20   XYZ
    dof rx
    limits (-10.0 170.0)
  end
  begin
     id 4 
     name lfoot
     direction 0.0736283 -0.202292 0.976554   
     length 2.13544   
     axis -90 7.62852e-016 20   XYZ
    dof rx rz
    limits (-45.0 90.0)
           (-70.0 20.0)
  end
  begin
     id 5 
     name ltoes
     direction 1.53557e-011 -4.22024e-011 1   
     length 1.07411   
     axis -90 7.62852e-016 20   XYZ
    dof rx
    limits (-90.0 20.0)
  end
  begin
     id 6 
     name rhipjoint
     direction -0.538061 -0.797813 0.272002   
     length 2.39057  
     axis 0 0 0  XYZ 
  end
  begin
     id 7 
     name rfemur
     direction -0.34202 -0.939693 0   
     length 7.50152   
     axis 0 0 -20   XYZ
    dof rx ry rz
    limits (-160.0 20.0)
           (-70.0 70.0)
           (-70.0 60.0)
  end
  begin
     id 8 
     name rtibia
     direction -0.34202 -0.939693 0   
     length 8.05793   
     axis 0 0 -20   XYZ
    dof rx
    limits (-10.0 170.0)
 end
 begin
     id 9 
     name rfoot
     direction -0.0765195 -0.210236 0.974652   
     length 2.28698  
     axis -90 -7.62852e-016 -20   XYZ
    dof rx rz
    limits (-45.0 90.0)
           (-20.0 70.0)
  end
  begin
     id 10 
     name rtoes
     direction -1.53542e-011 -4.21847e-011 1   
     length 1.14762   
     axis -90 -7.62852e-016 -20   XYZ
    dof rx
    limits (-90.0 20.0)
  end
  begin
     id 11 
     name lowerback
     direction -0.0217239 0.996592 -0.0795765   
     length 2.08176   
     axis 0 0 0   XYZ
    dof rx ry rz
    limits (-20.0 45.0)
           (-30.0 30.0)
           (-30.0 30.0)
  end
  begin
     id 12 
     name upperback
     direction -0.00563773 0.999651 -0.0258155   
     length 2.08898   
     axis 0 0 0   XYZ
    dof rx ry rz
    limits (-20.0 45.0)
           (-30.0 30.0)
           (-30.0 30.0)
  end
  begin
     id 13 
     name thorax
     direction 0.0032706 0.999923 0.0119599   
     length 2.0968   
     axis 0 0 0   XYZ
    dof rx ry rz
    limits (-20.0 45.0)
           (-30.0 30.0)
           (-30.0 30.0)
  end
  begin
     id 14 
     name lowerneck
     direction -0.0285886 0.99568 0.0883427   
     length 1.81272   
     axis 0 0 0   XYZ
    dof rx ry rz
    limits (-20.0 45.0)
           (-30.0 30.0)
           (-30.0 30.0)
  end
  begin
     id 15 
     name upperneck
     direction 0.0807535 0.97985 -0.18268   
     length 1.82518   
     axis 0 0 0   XYZ
    dof rx ry rz
    limits (-20.0 45.0)
           (-30.0 30.0)
           (-30.0 30.0)
  end
  begin
     id 16
     name head
     direction 0.0236605 0.997053 -0.0729767  
     length 1.84443  
     axis 0 0 0   XYZ
    dof rx ry rz
    limits (-20.0 45.0)
           (-30.0 30.0)
           (-30.0 30.0)
  end
  begin
     id 17 
     name lclavicle
     direction 0.918986 0.39378 -0.0200683  
     length 3.27822  
     axis 0 0 0   XYZ
    dof ry rz
    limits (-20.0 10.0)
           (0.0 20.0)
  end
  begin
     id 18 
     name lhumerus
     direction 1 -4.4897e-011 2.09544e-027   
     length 5.5568   
     axis 180 -30 -90   XYZ
    dof rx ry rz
    limits (-60.0 90.0)
           (-90.0 90.0)
           (-90.0 90.0)
  end
  begin
     id 19
     name lradius
     direction 1 -4.48957e-011 -1.27696e-026   
     length 3.63979   
     axis 180 -30 -90   XYZ
    dof rx
    limits (-10.0 170.0)
  end
  begin
     id 20
     name lwrist
     direction 1 -4.49001e-011 -1.49001e-026   
     length 1.8199   
     axis 9.0955e-015 90 90   XYZ
    dof ry
    limits (-180.0 0.0)
 end
  begin
     id 21 
     name lhand
     direction 1 -4.48709e-011 -2.9758e-026   
     length 0.569419   
     axis 1.90115e-014 90 90   XYZ
    dof rx rz
    limits (-90.0 90.0)
           (-45.0 45.0)
  end
  begin
     id 22 
     name lfingers
     direction 1 -4.49175e-011 -5.96505e-026   
     length 0.45908   
     axis 3.80223e-014 90 90   XYZ
    dof rx
    limits (0.0 90.0)
  end
  begin
     id 23
     name lthumb
     direction 0.707107 -6.34864e-011 0.707107   
     length 0.65915   
     axis -90 45 -3.84942e-014   XYZ
    dof rx rz
    limits (-45.0 45.0)
           (-45.0 45.0)
  end
  begin
     id 24 
     name rclavicle
     direction -0.911913 0.396426 -0.106115   
     length 3.46301  
     axis 0 0 0   XYZ 
    dof ry rz
    limits (-10.0 20.0)
           (-20.0 0.0)
  end
  begin
     id 25 
     name rhumerus
     direction -1 -4.48965e-011 7.78516e-028  
     length 5.34339   
     axis 180 30 90   XYZ
    dof rx ry rz
    limits (-90.0 60.0)
           (-90.0 90.0)
           (-90.0 90.0)
  end
  begin
     id 26 
     name rradius
     direction -1 -4.48948e-011 -5.79823e-027   
     length 3.65101   
     axis 180 30 90   XYZ
    dof rx
    limits (-10.0 170.0)
  end
  begin
     id 27 
     name rwrist
     direction -1 -4.48995e-011 -1.48996e-026   
     length 1.8255   
     axis 9.0955e-015 -90 -90   XYZ
    dof ry
    limits (-180.0 0.0)
  end
  begin
     id 28
     name rhand
     direction -1 -4.48957e-011 -2.97937e-026   
     length 0.694249   
     axis 1.90115e-014 -90 -90   XYZ
    dof rx rz
    limits (-90.0 90.0)
           (-45.0 45.0)
  end
  begin
     id 29
     name rfingers
     direction -1 -4.4898e-011 -5.95943e-026   
     length 0.559721   
     axis 3.80223e-014 -90 -90   XYZ
    dof rx
    limits (0.0 90.0)
  end
  begin
     id 30
     name rthumb
     direction -0.707107 -6.34969e-011 0.707107   
     length 0.803651   
     axis -90 -45 3.84942e-014   XYZ
    dof rx rz
    limits (-45.0 45.0)
           (-45.0 45.0)
  end
:hierarchy
  begin
    root lhipjoint rhipjoint lowerback
    lhipjoint lfemur
    lfemur ltibia
    ltibia lfoot
    lfoot ltoes
    rhipjoint rfemur
    rfemur rtibia
    rtibia rfoot
    rfoot rtoes
    lowerback upperback
    upperback thorax
    thorax lowerneck lclavicle rclavicle
    lowerneck upperneck
    upperneck head
    lclavicle lhumerus
    lhumerus lradius
    lradius lwrist
    lwrist lhand lthumb
    lhand lfingers
    rclavicle rhumerus
    rhumerus rradius
    rradius rwrist
    rwrist rhand rthumb
    rhand rfingers
  end

#!OML:ASF H:\Terrain\Walking\May29\JustinRory\rory.ASF
:FULLY-SPECIFIED
:DEGREES
131
root 10.548 18.4552 -13.4163 0.881264 -6.76824 1.95239
lowerback -1.45628 0.771345 -4.88186
upperback 0.293976 1.13954 -2.17049
thorax 1.06853 0.543717 0.532532
lowerneck -10.6502 -3.43769 -3.9416
upperneck 28.1761 -4.62564 1.90154
head 10.9748 -2.32466 0.781504
rclavicle -1.30452e-014 -9.54166e-015
rhumerus -6.9512 16.8672 -89.1205
rradius 96.6556
rwrist 2.27938
rhand -22.8996 50.8951
rfingers 7.12502
rthumb 3.54002 20.9448
lclavicle -1.30452e-014 -9.54166e-015
lhumerus -4.3657 -26.9671 89.0286
lradius 95.1985
lwrist -7.49675
lhand -26.0535 12.6102
lfingers 7.12502
lthumb 0.494107 42.5893
rfemur -0.0281023 10.0456 13.8979
rtibia 11.9407
rfoot -7.24644 -15.6092
rtoes 1.42131
lfemur -1.25491 -5.07259 -18.6095
ltibia 13.1907
lfoot -13.3834 10.7237
ltoes -9.9303
132
root 10.5634 18.4595 -13.4195 0.840661 -6.89984 2.12569
lowerback -1.60521 0.819459 -5.23984
upperback 0.362022 1.22403 -2.15094
thorax 1.21088 0.579414 0.75667
lowerneck -10.4521 -3.52878 -3.92659
upperneck 27.9283 -4.68686 1.64575
head 10.8371 -2.38283 0.683451
rclavicle -2.1593e-014 7.95139e-015
rhumerus -7.0334 17.0877 -89.4675
rradius 96.7056
rwrist 0.0487598
rhand -24.7607 50.7431
rfingers 7.12502
rthumb 1.74272 20.7704
lclavicle -2.1593e-014 7.95139e-015
lhumerus -4.17495 -27.4539 89.0633
lradius 94.7637
lwrist -7.46021
lhand -26.4416 12.3426
lfingers 7.12502
lthumb 0.119186 42.3223
rfemur -0.237251 10.0657 13.6221
rtibia 12.2735
rfoot -7.18073 -15.4736
rtoes 0.0778386
lfemur -1.15327 -4.94531 -18.8606
ltibia 13.0431
lfoot -13.3673 10.6773
ltoes -9.75452
133
root 10.5807 18.4641 -13.4225 0.886194 -6.98348 2.26923
lowerback -1.62676 0.979148 -5.48391
upperback 0.260608 1.43789 -2.13987
thorax 1.10153 0.68815 0.907981
lowerneck -10.0539 -3.66081 -4.24184
upperneck 27.6674 -4.8178 1.65903
head 10.6753 -2.47645 0.734209
rclavicle -1.0225e-014 1.19271e-014
rhumerus -7.23979 17.0211 -89.7455
rradius 96.7352
rwrist -2.8065
rhand -25.739 49.8343
rfingers 7.12502
rthumb 0.797842 19.856
lclavicle -1.0225e-014 1.19271e-014
lhumerus -4.22597 -28.2139 89.5156
lradius 94.3034
lwrist -6.39134
lhand -26.7492 11.9063
lfingers 7.12502
lthumb -0.177849 41.886
rfemur -0.474214 9.97031 13.3516
rtibia 12.4904
rfoot -7.13586 -15.2006
rtoes -2.14358
lfemur -1.2239 -4.89696 -19.0701
ltibia 13.0211
lfoot -13.4556 10.6354
ltoes -8.69576
134
root 10.5973 18.4647 -13.4259 0.925746 -7.00572 1.9238
lowerback -1.66265 1.04996 -5.1817
upperback 0.209172 1.52584 -2.08769
thorax 1.06994 0.73535 0.795611
lowerneck -9.89407 -3.6193 -4.30504
upperneck 27.6865 -4.77105 1.73053
head 10.653 -2.45463 0.779421
rclavicle -1.20762e-014 1.11319e-014
rhumerus -7.35327 17.0487 -90.2838
rradius 96.6246
rwrist -5.45751
rhand -26.3874 48.6747
rfingers 7.12502
rthumb 0.171563 18.6951
lclavicle -1.20762e-014 1.11319e-014
lhumerus -4.15203 -28.9737 89.6372
lradius 93.9007
lwrist -4.64207
lhand -27.1228 11.6056
lfingers 7.12502
lthumb -0.538687 41.5846
rfemur -0.603788 9.98869 13.6806
rtibia 12.6938
rfoot -7.10161 -15.1351
rtoes -3.32812
lfemur -1.24998 -4.83885 -18.7156
ltibia 13.0179
lfoot -13.5065 10.4923
ltoes -8.29652
135
root 10.6167 18.4643 -13.4262 1.03891 -7.03257 1.5808
lowerback -1.9133 0.896726 -4.84262
upperback 0.245501 1.33438 -2.12969
thorax 1.26636 0.63781 0.564525
lowerneck -10.0583 -3.36432 -3.87716
upperneck 27.7811 -4.46548 1.62165
head 10.6941 -2.28302 0.702131
rclavicle 1.9133e-015 -3.97569e-015
rhumerus -7.33077 17.6157 -91.1175
rradius 96.4639
rwrist -7.01669
rhand -27.4374 47.1023
rfingers 7.12502
rthumb -0.84252 17.1242
lclavicle 1.9133e-015 -3.97569e-015
lhumerus -3.77911 -29.4344 88.9594
lradius 93.6116
lwrist -2.54097
lhand -27.2328 11.9586
lfingers 7.12502
lthumb -0.644962 41.9374
rfemur -0.775753 10.0301 13.9775
rtibia 12.8131
rfoot -7.1026 -15.2506
rtoes -1.30754
lfemur -1.36926 -4.89689 -18.3997
ltibia 13.0862
lfoot -13.5909 10.5073
ltoes -8.41296
136
root 10.6384 18.4668 -13.4219 1.13039 -7.03177 1.53135
lowerback -0.808603 0.935148 -6.01193
upperback -0.635958 1.27655 -1.31177
thorax -0.302804 0.656577 2.0239
lowerneck -9.71498 -3.42529 -4.47523
upperneck 28.4624 -4.27363 0.984075
head 10.8807 -2.33716 0.601134
rclavicle 7.70291e-015 -8.74653e-015
rhumerus -8.7493 18.4146 -90.6296
rradius 96.4431
rwrist -7.61906
rhand -27.8669 45.1009
rfingers 7.12502
rthumb -1.2574 15.1248
lclavicle 7.70291e-015 -8.74653e-015
lhumerus -5.03999 -29.7929 90.6652
lradius 93.4767
lwrist -0.968781
lhand -27.3053 13.1442
lfingers 7.12502
lthumb -0.714994 43.1228
rfemur -0.88619 9.86369 13.9114
rtibia 12.8368
rfoot -7.07842 -15.1305
rtoes 0.62281
lfemur -1.513 -4.97339 -18.4353
ltibia 13.2134
lfoot -13.6425 10.6
ltoes -7.71191
137
root 10.6593 18.4695 -13.4193 1.01653 -6.95758 1.58515
lowerback -1.31053 0.970483 -5.43208
upperback -0.173474 1.37824 -1.82983
thorax 0.473896 0.679056 1.18511
lowerneck -10.205 -3.47911 -4.3403
upperneck 28.3819 -4.49866 1.49116
head 10.9624 -2.36131 0.724485
rclavicle 1.15295e-014 -5.56597e-015
rhumerus -7.85701 18.291 -91.1178
rradius 96.0364
rwrist -7.02718
rhand -27.6677 44.7614
rfingers 7.12502
rthumb -1.06502 14.7843
lclavicle 1.15295e-014 -5.56597e-015
lhumerus -3.87426 -30.9191 89.5086
lradius 93.2432
lwrist -0.24413
lhand -27.4148 13.7763
lfingers 7.12502
lthumb -0.820736 43.7545
rfemur -0.765335 9.53482 13.7828
rtibia 12.8532
rfoot -6.6382 -14.8552
rtoes -0.763022
lfemur -1.42958 -5.09113 -18.5859
ltibia 13.2697
lfoot -13.6787 10.6683
ltoes -7.39246
138
root 10.6785 18.4704 -13.4228 0.91842 -6.78767 1.60778
lowerback -1.84572 0.90246 -5.17436
upperback 0.313788 1.34773 -2.101
thorax 1.29013 0.640464 0.778359
lowerneck -10.6049 -3.44201 -4.41058
upperneck 28.111 -4.55359 2.01406
head 10.9557 -2.32722 0.912352
rclavicle 4.88265e-015 -3.18055e-015
rhumerus -6.83448 18.6561 -91.24
rradius 95.5612
rwrist -5.76596
rhand -27.5612 45.0536
rfingers 7.12502
rthumb -0.962157 15.076
lclavicle 4.88265e-015 -3.18055e-015
lhumerus -2.74729 -31.3257 88.7306
lradius 92.796
lwrist -1.27156
lhand -27.6162 13.3724
lfingers 7.12502
lthumb -1.01526 43.3498
rfemur -0.623009 9.31212 13.7189
rtibia 12.8011
rfoot -6.08482 -14.7452
rtoes -3.11434
lfemur -1.39226 -5.34285 -18.6872
ltibia 13.3196
lfoot -13.6996 10.7432
ltoes -8.0125
139
root 10.6995 18.472 -13.4251 0.949594 -6.63223 1.58225
lowerback -1.98348 0.904133 -5.31397
upperback 0.308131 1.36213 -2.02911
thorax 1.35609 0.644965 0.932737
lowerneck -10.2412 -3.46889 -4.68087
upperneck 27.6726 -4.58272 2.17868
head 10.7316 -2.3516 1.02117
rclavicle 1.21259e-014 4.05521e-014
rhumerus -6.56384 19.159 -90.9471
rradius 95.232
rwrist -4.59881
rhand -26.3991 42.3152
rfingers 7.12502
rthumb 0.160295 12.3355
lclavicle 1.21259e-014 4.05521e-014
lhumerus -2.38874 -31.7307 88.8752
lradius 92.2611
lwrist -3.39951
lhand -28.1234 13.631
lfingers 7.12502
lthumb -1.50506 43.6054
rfemur -0.549797 9.26414 13.6715
rtibia 12.6439
rfoot -5.91134 -14.7588
rtoes -3.535
lfemur -1.53071 -5.43324 -18.7222
ltibia 13.4497
lfoot -13.6579 10.664
ltoes -8.13092
140
root 10.7231 18.4736 -13.4244 1.0049 -6.55876 1.39418
lowerback -1.96084 1.05938 -5.18493
upperback 0.174299 1.55641 -1.91288
thorax 1.19488 0.748004 0.983558
lowerneck -9.81766 -3.60884 -4.98949
upperneck 27.2997 -4.72548 2.18265
head 10.5249 -2.45024 1.06543
rclavicle -3.22031e-014 1.90833e-014
rhumerus -6.53543 19.4622 -90.395
rradius 94.8608
rwrist -3.60852
rhand -25.2193 41.0311
rfingers 7.12502
rthumb 1.29981 11.0554
lclavicle -3.22031e-014 1.90833e-014
lhumerus -2.12845 -32.6179 89.1958
lradius 91.8073
lwrist -5.75582
lhand -28.4583 14.7268
lfingers 7.12502
lthumb -1.82858 44.6988
rfemur -0.543006 9.22299 13.7626
rtibia 12.5676
rfoot -5.97293 -14.7656
rtoes -2.66368
lfemur -1.59958 -5.48177 -18.5976
ltibia 13.493
lfoot -13.6429 10.6344
ltoes -7.73435
141
root 10.7405 18.4774 -13.4268 1.00227 -6.59205 1.06728
lowerback -1.82126 1.10989 -4.88384
upperback 0.0918578 1.60283 -1.83965
thorax 1.03502 0.777444 0.888172
lowerneck -9.70218 -3.60672 -4.9379
upperneck 27.1198 -4.68776 2.01576
head 10.4286 -2.44711 1.00433
rclavicle -1.83379e-014 2.14687e-014
rhumerus -6.39739 20.3377 -90.069
rradius 94.0066
rwrist -2.03608
rhand -26.9744 45.3113
rfingers 7.12502
rthumb -0.395347 15.3319
lclavicle -1.83379e-014 2.14687e-014
lhumerus -1.91878 -33.0666 89.2503
lradius 91.3229
lwrist -8.02708
lhand -28.7236 14.8523
lfingers 7.12502
lthumb -2.08472 44.8219
rfemur -0.584595 9.37594 14.0399
rtibia 12.6974
rfoot -6.10496 -14.7186
rtoes -3.25252
lfemur -1.48775 -5.55067 -18.307
ltibia 13.3485
lfoot -13.6454 10.7606
ltoes -7.50542
142
root 10.7556 18.4891 -13.4245 0.908425 -6.68266 1.06186
lowerback -1.74767 1.10302 -4.9653
upperback 0.0516984 1.58922 -1.91924
thorax 0.953216 0.772527 0.849372
lowerneck -9.73808 -3.49626 -4.69703
upperneck 27.1381 -4.57523 1.99781
head 10.4296 -2.37342 0.970154
rclavicle 9.41121e-015 8.74653e-015
rhumerus -6.27125 21.5107 -89.9813
rradius 93.0703
rwrist 0.317858
rhand -29.6987 47.4968
rfingers 7.12502
rthumb -3.02647 17.5385
lclavicle 9.41121e-015 8.74653e-015
lhumerus -1.80475 -33.2341 89.1759
lradius 90.7659
lwrist -9.44541
lhand -28.8772 14.6896
lfingers 7.12502
lthumb -2.23308 44.6576
rfemur -0.553498 9.61865 13.9698
rtibia 12.9167
rfoot -6.37051 -14.4089
rtoes -5.32798
lfemur -1.26817 -5.49249 -18.3655
ltibia 13.1459
lfoot -13.577 10.8416
ltoes -7.35076
143
root 10.7768 18.5019 -13.4162 0.90793 -6.68596 1.24535
lowerback -2.05903 1.13456 -5.3097
upperback 0.141968 1.66531 -1.95147
thorax 1.20846 0.801676 1.01799
lowerneck -9.89493 -3.50425 -4.69711
upperneck 27.0518 -4.5886 2.04482
head 10.4301 -2.37193 0.982731
rclavicle 7.57867e-015 -1.03368e-014
rhumerus -5.89989 21.8392 -89.5477
rradius 92.6695
rwrist 0.0614528
rhand -25.1532 43.4597
rfingers 7.12502
rthumb 1.36359 13.4843
lclavicle 7.57867e-015 -1.03368e-014
lhumerus -1.33529 -33.5249 89.1943
lradius 90.3286
lwrist -9.87323
lhand -28.5807 15.4736
lfingers 7.12502
lthumb -1.94679 45.4445
rfemur -0.643778 9.65394 13.6374
rtibia 13.1288
rfoot -6.53111 -14.0972
rtoes -6.79454
lfemur -1.17658 -5.35451 -18.638
ltibia 12.952
lfoot -13.4066 10.7441
ltoes -7.63414
144
root 10.8018 18.5049 -13.4137 1.03737 -6.56212 1.26192
lowerback -2.41801 1.07675 -5.31592
upperback 0.212699 1.61915 -2.02356
thorax 1.48745 0.771549 0.955149
lowerneck -10.0233 -3.54081 -4.8448
upperneck 26.8052 -4.66027 2.27669
head 10.3771 -2.39129 1.07955
rclavicle 1.27719e-014 -2.3059e-014
rhumerus -5.35761 22.4342 -89.1491
rradius 92.0046
rwrist 0.395488
rhand -22.7207 41.3708
rfingers 7.12502
rthumb 3.71278 11.4234
lclavicle 1.27719e-014 -2.3059e-014
lhumerus -0.744065 -33.7451 88.9482
lradius 90.0299
lwrist -9.86603
lhand -28.2677 16.4698
lfingers 7.12502
lthumb -1.64443 46.4432
rfemur -0.937054 9.51518 13.4792
rtibia 13.2854
rfoot -6.29919 -14.1297
rtoes -6.80866
lfemur -1.25863 -5.29335 -18.726
ltibia 12.7887
lfoot -13.2311 10.5797
ltoes -8.21269
145
root 10.8258 18.4978 -13.4104 1.01295 -6.43413 1.17939
lowerback -2.58103 1.10223 -5.32792
upperback 0.294734 1.6696 -2.03271
thorax 1.66077 0.791553 0.958837
lowerneck -10.152 -3.60555 -4.98226
upperneck 26.5734 -4.79908 2.60507
head 10.3351 -2.4292 1.20039
rclavicle -3.96451e-014 2.06736e-014
rhumerus -4.77998 23.1108 -88.4776
rradius 91.3184
rwrist 0.647714
rhand -23.4205 41.1937
rfingers 7.12502
rthumb 3.03704 11.2355
lclavicle -3.96451e-014 2.06736e-014
lhumerus -0.176308 -34.2172 88.7671
lradius 89.7351
lwrist -9.58784
lhand -28.5381 17.7167
lfingers 7.12502
lthumb -1.90562 47.688
rfemur -0.974066 9.29972 13.4749
rtibia 13.2848
rfoot -5.86872 -14.221
rtoes -5.68463
lfemur -1.22417 -5.34369 -18.7302
ltibia 12.8035
lfoot -13.2424 10.4823
ltoes -8.18393
